<?xml version="1.0" standalone="no"?>
<!DOCTYPE svg PUBLIC "-//W3C//DTD SVG 20010904//EN"
 "http://www.w3.org/TR/2001/REC-SVG-20010904/DTD/svg10.dtd">
<svg version="1.0" xmlns="http://www.w3.org/2000/svg"
 width="700.000000pt" height="700.000000pt" viewBox="0 0 700.000000 700.000000"
 preserveAspectRatio="xMidYMid meet">
<metadata>
Created by potrace 1.11, written by Peter Selinger 2001-2013
</metadata>
<g transform="translate(0.000000,700.000000) scale(0.100000,-0.100000)"
fill="#000000" stroke="none">
<path d="M933 5965 c-129 -39 -218 -137 -241 -265 -14 -85 -9 -4384 6 -4435
29 -99 113 -186 214 -224 l58 -21 2543 3 2542 2 67 33 c80 39 138 101 170 181
l22 56 0 2210 1 2210 -33 66 c-37 77 -91 130 -171 168 l-56 26 -2540 1 c-2040
2 -2548 -1 -2582 -11z m3672 -234 c77 -36 124 -101 130 -180 7 -98 -39 -182
-121 -222 -153 -73 -324 34 -324 203 0 153 175 264 315 199z m620 0 c164 -75
176 -299 22 -395 -88 -54 -214 -34 -281 45 -62 74 -73 161 -30 247 25 51 84
103 129 115 45 11 122 6 160 -12z m620 0 c44 -20 100 -78 116 -120 17 -42 18
-112 3 -154 -34 -96 -109 -151 -208 -151 -174 1 -278 171 -198 325 54 104 182
148 287 100z m134 -2513 l0 -1858 -2479 0 -2479 0 0 1852 c1 1019 2 1855 4
1858 2 4 1118 6 2479 6 l2475 0 0 -1858z"/>
<path d="M3654 4248 c-17 -4 -38 -16 -46 -25 -14 -16 -44 -92 -53 -133 -2 -8
-11 -44 -20 -80 -9 -36 -18 -72 -20 -80 -9 -41 -51 -216 -96 -400 -28 -113
-53 -216 -55 -230 -3 -14 -11 -47 -19 -75 -8 -27 -16 -61 -19 -75 -2 -14 -29
-126 -59 -251 -79 -320 -90 -387 -75 -432 23 -63 149 -77 203 -23 18 18 54
134 80 257 2 9 13 52 24 95 11 44 26 104 32 134 15 63 14 57 22 90 4 14 29
117 56 230 28 113 68 282 91 375 23 94 43 178 45 188 2 10 7 27 10 37 3 10 8
27 10 37 2 10 15 65 28 123 29 123 27 174 -7 208 -28 28 -88 42 -132 30z"/>
<path d="M2880 3934 c-69 -30 -134 -59 -145 -64 -11 -6 -222 -98 -470 -204
l-450 -195 -3 -149 -3 -149 68 -28 c38 -16 95 -41 128 -56 33 -15 139 -61 235
-102 197 -84 545 -235 611 -265 77 -35 168 -72 176 -72 12 0 10 328 -2 338 -6
5 -192 80 -415 167 -223 87 -409 161 -413 165 -4 4 43 26 105 50 62 23 127 48
143 56 17 7 77 30 135 52 58 21 184 70 280 107 l175 68 0 168 c0 144 -2 169
-15 168 -8 0 -71 -25 -140 -55z"/>
<path d="M3965 3825 c0 -136 3 -167 15 -175 8 -5 67 -29 130 -54 63 -24 169
-66 235 -91 66 -26 155 -60 197 -75 42 -16 91 -35 110 -43 18 -8 49 -20 68
-27 60 -22 90 -35 90 -40 0 -3 -55 -26 -123 -52 -193 -74 -705 -276 -714 -281
-6 -4 -10 -334 -4 -344 1 -2 189 80 316 137 22 10 74 33 115 50 64 27 171 75
365 160 22 9 127 55 233 101 l192 83 0 146 0 146 -322 139 c-178 76 -345 149
-373 161 -109 49 -519 224 -524 224 -4 0 -6 -74 -6 -165z"/>
</g>
</svg>
