<svg width="66" height="25" viewBox="0 0 66 25" version="1.1" xmlns="http://www.w3.org/2000/svg" xmlns:xlink="http://www.w3.org/1999/xlink">
<title>Page 1</title>
<desc>Created using Figma</desc>
<g id="Canvas" transform="translate(719 -70)">
<g id="Vector">
<use xlink:href="#path0_fill" transform="translate(-719 73)" fill="#FFFFFF" fill-opacity="0.5"/>
</g>
<g id="Vector">
<use xlink:href="#path1_fill" transform="translate(-705 70)" fill="#FFFFFF" fill-opacity="0.5"/>
</g>
<g id="Vector">
<use xlink:href="#path2_fill" transform="translate(-666 73)" fill="#FFFFFF" fill-opacity="0.5"/>
</g>
<g id="head">
<use xlink:href="#path3_fill" transform="translate(-697 77)" fill="#FFFFFF" fill-opacity="0.5"/>
</g>
</g>
<defs>
<path id="path0_fill" d="M 2.42623 8.51843L 12.4651 1.75967C 12.9024 1.46524 13.0206 0.868711 12.7281 0.427316C 12.436 -0.0135983 11.8448 -0.133193 11.4066 0.162191L 1.3677 6.92096C 0.511161 7.49732 -1.27209e-08 8.46176 -1.27209e-08 9.50017C -1.27209e-08 10.5386 0.511161 11.503 1.3677 12.0794L 11.4066 18.8381C 11.569 18.9476 11.7529 19 11.9349 19C 12.2426 19 12.5446 18.8501 12.7281 18.573C 13.0206 18.1316 12.9024 17.5351 12.4651 17.2407L 2.42623 10.4814C 2.09562 10.2586 1.90554 9.90122 1.90554 9.49969C 1.90554 9.09864 2.09562 8.74129 2.42623 8.51843Z"/>
<path id="path1_fill" d="M 8.43626 0.0388249C 8.0103 -0.0982233 7.55479 0.139055 7.41874 0.569427L 0.0385787 23.9331C -0.0974686 24.3634 0.13778 24.8237 0.563738 24.9611C 0.645528 24.9873 0.728534 25 0.809919 25C 1.15287 25 1.47113 24.7783 1.58126 24.4301L 8.96142 1.06689C 9.09747 0.636519 8.86222 0.176282 8.43626 0.0388249Z"/>
<path id="path2_fill" d="M 11.5215 6.92075L 1.48215 0.16198C 1.04483 -0.132924 0.452682 -0.0138098 0.160658 0.427105C -0.131842 0.8685 -0.0136979 1.46503 0.423624 1.75945L 10.4625 8.51822C 10.7931 8.74108 10.9832 9.09842 10.9832 9.49947C 10.9832 9.90052 10.7936 10.2583 10.4625 10.4812L 0.4241 17.2405C -0.0132217 17.5349 -0.131366 18.1314 0.161134 18.5728C 0.344543 18.8499 0.646571 18.9998 0.954316 18.9998C 1.13582 18.9998 1.32018 18.9474 1.48263 18.8379L 11.5215 12.0792C 12.378 11.5028 12.8892 10.5384 12.8892 9.49995C 12.8892 8.46155 12.378 7.49711 11.5215 6.92075Z"/>
<path id="path3_fill" d="M 6.61035 10L 5.4209 10L 5.4209 5.61816C 5.4209 5.08952 5.32064 4.69531 5.12012 4.43555C 4.92415 4.17122 4.6416 4.03906 4.27246 4.03906C 4.11296 4.03906 3.96257 4.06185 3.82129 4.10742C 3.68457 4.14844 3.54102 4.22363 3.39062 4.33301C 3.24023 4.43783 3.07617 4.58138 2.89844 4.76367C 2.7207 4.94596 2.51562 5.17383 2.2832 5.44727L 2.2832 10L 1.09375 10L 1.09375 0.34082L 2.2832 0.34082L 2.2832 3.13672L 2.24219 4.2168C 2.42904 3.99349 2.61133 3.80664 2.78906 3.65625C 2.97135 3.5013 3.15137 3.37598 3.3291 3.28027C 3.51139 3.18457 3.69596 3.11621 3.88281 3.0752C 4.06966 3.03418 4.26335 3.01367 4.46387 3.01367C 5.14746 3.01367 5.67611 3.22331 6.0498 3.64258C 6.4235 4.05729 6.61035 4.68392 6.61035 5.52246L 6.61035 10ZM 14.5879 6.20605C 14.5879 6.37467 14.5856 6.51595 14.5811 6.62988C 14.5765 6.74382 14.5697 6.85091 14.5605 6.95117L 9.74121 6.95117C 9.74121 7.65299 9.93717 8.19303 10.3291 8.57129C 10.721 8.94499 11.2861 9.13184 12.0244 9.13184C 12.2249 9.13184 12.4255 9.125 12.626 9.11133C 12.8265 9.0931 13.0202 9.07031 13.207 9.04297C 13.3939 9.01562 13.5716 8.986 13.7402 8.9541C 13.9134 8.91764 14.0729 8.87891 14.2188 8.83789L 14.2188 9.81543C 13.8952 9.90658 13.5283 9.97949 13.1182 10.0342C 12.7126 10.0934 12.291 10.123 11.8535 10.123C 11.2656 10.123 10.7598 10.0433 10.3359 9.88379C 9.91211 9.72428 9.56348 9.49414 9.29004 9.19336C 9.02116 8.88802 8.82064 8.5166 8.68848 8.0791C 8.56087 7.63704 8.49707 7.13802 8.49707 6.58203C 8.49707 6.09896 8.56543 5.64323 8.70215 5.21484C 8.84342 4.7819 9.04622 4.40365 9.31055 4.08008C 9.57943 3.75195 9.90755 3.49219 10.2949 3.30078C 10.6823 3.10938 11.1221 3.01367 11.6143 3.01367C 12.0928 3.01367 12.5166 3.08887 12.8857 3.23926C 13.2549 3.38965 13.5648 3.60384 13.8154 3.88184C 14.0706 4.15527 14.262 4.49023 14.3896 4.88672C 14.5218 5.27865 14.5879 5.71842 14.5879 6.20605ZM 13.3506 6.03516C 13.3643 5.72982 13.3346 5.45182 13.2617 5.20117C 13.1888 4.94596 13.0749 4.72721 12.9199 4.54492C 12.7695 4.36263 12.5804 4.22135 12.3525 4.12109C 12.1247 4.01628 11.8604 3.96387 11.5596 3.96387C 11.2998 3.96387 11.0628 4.014 10.8486 4.11426C 10.6344 4.21452 10.4499 4.35579 10.2949 4.53809C 10.14 4.72038 10.0146 4.93913 9.91895 5.19434C 9.82324 5.44954 9.764 5.72982 9.74121 6.03516L 13.3506 6.03516ZM 20.8975 10L 20.8701 9.07715C 20.4964 9.44629 20.1159 9.71289 19.7285 9.87695C 19.3457 10.041 18.9424 10.123 18.5186 10.123C 18.1266 10.123 17.7917 10.0729 17.5137 9.97266C 17.2357 9.8724 17.0055 9.73568 16.8232 9.5625C 16.6455 9.38477 16.5133 9.17741 16.4268 8.94043C 16.3447 8.70345 16.3037 8.44596 16.3037 8.16797C 16.3037 7.47982 16.5589 6.94206 17.0693 6.55469C 17.5843 6.16276 18.3431 5.9668 19.3457 5.9668L 20.7676 5.9668L 20.7676 5.36523C 20.7676 4.95964 20.6377 4.63607 20.3779 4.39453C 20.1182 4.14844 19.7217 4.02539 19.1885 4.02539C 18.8011 4.02539 18.4183 4.06868 18.04 4.15527C 17.6663 4.24186 17.279 4.36491 16.8779 4.52441L 16.8779 3.45117C 17.0283 3.39648 17.1947 3.34408 17.377 3.29395C 17.5638 3.23926 17.7598 3.19141 17.9648 3.15039C 18.1699 3.10938 18.3841 3.07747 18.6074 3.05469C 18.8307 3.02734 19.0563 3.01367 19.2842 3.01367C 19.6989 3.01367 20.0726 3.05924 20.4053 3.15039C 20.738 3.24154 21.0182 3.38053 21.2461 3.56738C 21.4785 3.75423 21.6562 3.98893 21.7793 4.27148C 21.9023 4.55404 21.9639 4.88672 21.9639 5.26953L 21.9639 10L 20.8975 10ZM 20.7676 6.87598L 19.2568 6.87598C 18.9606 6.87598 18.7054 6.9056 18.4912 6.96484C 18.277 7.02409 18.1016 7.1084 17.9648 7.21777C 17.8281 7.32715 17.7256 7.45931 17.6572 7.61426C 17.5934 7.76465 17.5615 7.93555 17.5615 8.12695C 17.5615 8.25911 17.582 8.38672 17.623 8.50977C 17.6641 8.62826 17.7301 8.73535 17.8213 8.83105C 17.9124 8.9222 18.0309 8.99512 18.1768 9.0498C 18.3226 9.10449 18.5003 9.13184 18.71 9.13184C 18.9834 9.13184 19.2956 9.0498 19.6465 8.88574C 20.002 8.71712 20.3757 8.4528 20.7676 8.09277L 20.7676 6.87598ZM 23.8369 6.71191C 23.8369 6.12858 23.9167 5.61133 24.0762 5.16016C 24.2357 4.70443 24.4613 4.32161 24.7529 4.01172C 25.0492 3.69727 25.4023 3.46029 25.8125 3.30078C 26.2272 3.13672 26.6875 3.05469 27.1934 3.05469C 27.4121 3.05469 27.6263 3.06836 27.8359 3.0957C 28.0501 3.12305 28.2598 3.16634 28.4648 3.22559L 28.4648 0.34082L 29.6611 0.34082L 29.6611 10L 28.5947 10L 28.5537 8.70117C 28.221 9.18424 27.861 9.54199 27.4736 9.77441C 27.0863 10.0068 26.667 10.123 26.2158 10.123C 25.8239 10.123 25.4775 10.041 25.1768 9.87695C 24.8805 9.71289 24.6322 9.48275 24.4316 9.18652C 24.2357 8.88574 24.0876 8.52572 23.9873 8.10645C 23.887 7.68717 23.8369 7.22233 23.8369 6.71191ZM 25.0537 6.63672C 25.0537 7.46615 25.1745 8.08594 25.416 8.49609C 25.6621 8.90169 26.0085 9.10449 26.4551 9.10449C 26.7559 9.10449 27.0726 8.97005 27.4053 8.70117C 27.7425 8.43229 28.0957 8.03353 28.4648 7.50488L 28.4648 4.31934C 28.2689 4.22819 28.0524 4.15983 27.8154 4.11426C 27.5785 4.06413 27.3438 4.03906 27.1113 4.03906C 26.4642 4.03906 25.9583 4.2487 25.5938 4.66797C 25.2337 5.08724 25.0537 5.74349 25.0537 6.63672Z"/>
</defs>
</svg>
