<svg width="55" height="19" version="1.1" xmlns="http://www.w3.org/2000/svg" xmlns:xlink="http://www.w3.org/1999/xlink">
<title>Vector</title>
<desc>Created using Figma</desc>
<g id="Canvas" transform="translate(718 460)">
<g id="Vector">
<g id="Vector">
<use xlink:href="#path0_fill" transform="translate(-718 -460)" fill="#FFFFFF" fill-opacity="0.5"/>
<use xlink:href="#path1_fill" transform="translate(-718 -460)" fill="#FFFFFF" fill-opacity="0.5"/>
<use xlink:href="#path2_fill" transform="translate(-718 -460)" fill="#FFFFFF" fill-opacity="0.5"/>
<use xlink:href="#path3_fill" transform="translate(-718 -460)" fill="#FFFFFF" fill-opacity="0.5"/>
<use xlink:href="#path4_fill" transform="translate(-718 -460)" fill="#FFFFFF" fill-opacity="0.5"/>
<use xlink:href="#path5_fill" transform="translate(-718 -460)" fill="#FFFFFF" fill-opacity="0.5"/>
</g>
</g>
</g>
<defs>
<path id="path0_fill" d="M 2.42623 8.51843L 12.4651 1.75967C 12.9024 1.46524 13.0206 0.868711 12.7281 0.427316C 12.436 -0.0135983 11.8448 -0.133193 11.4066 0.162191L 1.3677 6.92096C 0.511161 7.49732 0 8.46176 0 9.50017C 0 10.5386 0.511161 11.503 1.3677 12.0794L 11.4066 18.8381C 11.569 18.9476 11.7529 19 11.9349 19C 12.2426 19 12.5446 18.8501 12.7281 18.573C 13.0206 18.1316 12.9024 17.5351 12.4651 17.2407L 2.42623 10.4814C 2.09562 10.2586 1.90554 9.90122 1.90554 9.49969C 1.90554 9.09864 2.09562 8.74129 2.42623 8.51843Z"/>
<path id="path1_fill" d="M 53.5215 6.92075L 43.4822 0.16198C 43.0448 -0.132924 42.4527 -0.0138098 42.1607 0.427105C 41.8682 0.8685 41.9863 1.46503 42.4236 1.75945L 52.4625 8.51822C 52.7931 8.74108 52.9832 9.09842 52.9832 9.49947C 52.9832 9.90052 52.7936 10.2583 52.4625 10.4812L 42.4241 17.2405C 41.9868 17.5349 41.8686 18.1314 42.1611 18.5728C 42.3445 18.8499 42.6466 18.9998 42.9543 18.9998C 43.1358 18.9998 43.3202 18.9474 43.4826 18.8379L 53.5215 12.0792C 54.378 11.5028 54.8892 10.5384 54.8892 9.49995C 54.8892 8.46155 54.378 7.49711 53.5215 6.92075Z"/>
<path id="path2_fill" d="M 19.959 10.4453C 19.959 11.015 19.8792 11.5254 19.7197 11.9766C 19.5648 12.4232 19.3415 12.8037 19.0498 13.1182C 18.7627 13.4281 18.4118 13.6673 17.9971 13.8359C 17.5824 14 17.1152 14.082 16.5957 14.082C 16.1901 14.082 15.7754 14.0433 15.3516 13.9658C 14.9277 13.8883 14.5085 13.7653 14.0938 13.5967L 14.0938 4.34082L 15.2832 4.34082L 15.2832 7L 15.2285 8.27148C 15.5703 7.8112 15.9349 7.48763 16.3223 7.30078C 16.7142 7.10938 17.1335 7.01367 17.5801 7.01367C 17.972 7.01367 18.3161 7.0957 18.6123 7.25977C 18.9085 7.42383 19.1569 7.65625 19.3574 7.95703C 19.5579 8.25326 19.7083 8.61328 19.8086 9.03711C 19.9089 9.45638 19.959 9.92578 19.959 10.4453ZM 18.7422 10.5C 18.7422 10.14 18.7148 9.80957 18.6602 9.50879C 18.61 9.20801 18.528 8.95052 18.4141 8.73633C 18.3001 8.52214 18.1543 8.35579 17.9766 8.2373C 17.7988 8.11426 17.5869 8.05273 17.3408 8.05273C 17.1904 8.05273 17.0378 8.0778 16.8828 8.12793C 16.7279 8.1735 16.5661 8.25326 16.3975 8.36719C 16.2334 8.47656 16.0579 8.62467 15.8711 8.81152C 15.6888 8.99382 15.4928 9.22168 15.2832 9.49512L 15.2832 12.8242C 15.5156 12.9154 15.7526 12.9883 15.9941 13.043C 16.2357 13.0931 16.4658 13.1182 16.6846 13.1182C 16.958 13.1182 17.2178 13.0749 17.4639 12.9883C 17.7145 12.9017 17.9333 12.7581 18.1201 12.5576C 18.3115 12.3525 18.4619 12.0837 18.5713 11.751C 18.6852 11.4137 18.7422 10.9967 18.7422 10.5Z"/>
<path id="path3_fill" d="M 27.7656 10.5137C 27.7656 11.0469 27.6904 11.5368 27.54 11.9834C 27.3896 12.4255 27.1732 12.806 26.8906 13.125C 26.6081 13.4395 26.264 13.6855 25.8584 13.8633C 25.4528 14.0365 24.9925 14.123 24.4775 14.123C 23.9854 14.123 23.5433 14.0479 23.1514 13.8975C 22.764 13.7425 22.4336 13.5169 22.1602 13.2207C 21.8913 12.9245 21.6839 12.5576 21.5381 12.1201C 21.3968 11.6826 21.3262 11.179 21.3262 10.6094C 21.3262 10.0762 21.4014 9.59082 21.5518 9.15332C 21.7021 8.71126 21.9186 8.33301 22.2012 8.01855C 22.4837 7.69954 22.8278 7.45345 23.2334 7.28027C 23.639 7.10254 24.0993 7.01367 24.6143 7.01367C 25.1064 7.01367 25.5462 7.09115 25.9336 7.24609C 26.3255 7.39648 26.6559 7.61979 26.9248 7.91602C 27.1982 8.20768 27.4056 8.57227 27.5469 9.00977C 27.6927 9.44727 27.7656 9.94857 27.7656 10.5137ZM 26.5488 10.5684C 26.5488 10.1445 26.501 9.77539 26.4053 9.46094C 26.3141 9.14193 26.182 8.8776 26.0088 8.66797C 25.8356 8.45378 25.6237 8.29427 25.373 8.18945C 25.127 8.08008 24.8512 8.02539 24.5459 8.02539C 24.1904 8.02539 23.8851 8.09603 23.6299 8.2373C 23.3792 8.37402 23.1719 8.55859 23.0078 8.79102C 22.8483 9.02344 22.7298 9.2946 22.6523 9.60449C 22.5794 9.90983 22.543 10.2311 22.543 10.5684C 22.543 10.9922 22.5885 11.3636 22.6797 11.6826C 22.7754 12.0016 22.9098 12.2682 23.083 12.4824C 23.2562 12.6921 23.4658 12.8516 23.7119 12.9609C 23.958 13.0658 24.236 13.1182 24.5459 13.1182C 24.9014 13.1182 25.2044 13.0498 25.4551 12.9131C 25.7103 12.7718 25.9176 12.585 26.0771 12.3525C 26.2412 12.1201 26.3597 11.8512 26.4326 11.5459C 26.5101 11.236 26.5488 10.9102 26.5488 10.5684Z"/>
<path id="path4_fill" d="M 29.1396 10.7119C 29.1396 10.1286 29.2194 9.61133 29.3789 9.16016C 29.5384 8.70443 29.764 8.32161 30.0557 8.01172C 30.3519 7.69727 30.7051 7.46029 31.1152 7.30078C 31.5299 7.13672 31.9902 7.05469 32.4961 7.05469C 32.7148 7.05469 32.929 7.06836 33.1387 7.0957C 33.3529 7.12305 33.5625 7.16634 33.7676 7.22559L 33.7676 4.34082L 34.9639 4.34082L 34.9639 14L 33.8975 14L 33.8564 12.7012C 33.5238 13.1842 33.1637 13.542 32.7764 13.7744C 32.389 14.0068 31.9697 14.123 31.5186 14.123C 31.1266 14.123 30.7803 14.041 30.4795 13.877C 30.1833 13.7129 29.9349 13.4827 29.7344 13.1865C 29.5384 12.8857 29.3903 12.5257 29.29 12.1064C 29.1898 11.6872 29.1396 11.2223 29.1396 10.7119ZM 30.3564 10.6367C 30.3564 11.4661 30.4772 12.0859 30.7188 12.4961C 30.9648 12.9017 31.3112 13.1045 31.7578 13.1045C 32.0586 13.1045 32.3753 12.9701 32.708 12.7012C 33.0452 12.4323 33.3984 12.0335 33.7676 11.5049L 33.7676 8.31934C 33.5716 8.22819 33.3551 8.15983 33.1182 8.11426C 32.8812 8.06413 32.6465 8.03906 32.4141 8.03906C 31.7669 8.03906 31.2611 8.2487 30.8965 8.66797C 30.5365 9.08724 30.3564 9.74349 30.3564 10.6367Z"/>
<path id="path5_fill" d="M 43.29 7.13672L 40.9521 13.2754C 40.7106 13.8997 40.46 14.4375 40.2002 14.8887C 39.945 15.3398 39.6647 15.709 39.3594 15.9961C 39.054 16.2878 38.7191 16.502 38.3545 16.6387C 37.9899 16.7754 37.582 16.8438 37.1309 16.8438C 37.0124 16.8438 36.9053 16.8415 36.8096 16.8369C 36.7139 16.8324 36.609 16.8255 36.4951 16.8164L 36.4951 15.7363C 36.5954 15.75 36.7048 15.7614 36.8232 15.7705C 36.9417 15.7842 37.0671 15.791 37.1992 15.791C 37.418 15.791 37.6208 15.7591 37.8076 15.6953C 37.999 15.6315 38.179 15.5267 38.3477 15.3809C 38.5163 15.2396 38.6781 15.055 38.833 14.8271C 38.988 14.5993 39.1383 14.3236 39.2842 14L 36.543 7.13672L 37.8965 7.13672L 39.6328 11.6758L 39.9814 12.7422L 40.3779 11.6484L 41.9844 7.13672L 43.29 7.13672Z"/>
</defs>
</svg>
