<svg width="64" height="62" viewBox="0 0 64 62" version="1.1" xmlns="http://www.w3.org/2000/svg" xmlns:xlink="http://www.w3.org/1999/xlink">
<title>svg 5</title>
<desc>Created using Figma</desc>
<g id="Canvas" transform="translate(533 158)">
<g id="svg 5">
<use xlink:href="#path0_fill" transform="translate(-532.955 -157.136)" fill="#FFFFFF"/>
</g>
</g>
<defs>
<path id="path0_fill" d="M 45.1475 30.0577C 48.0265 26.863 49.7942 22.656 49.7942 18.0364C 49.7942 8.09158 41.671 -4.00489e-15 31.6872 -4.00489e-15C 21.7035 -4.00489e-15 13.5802 8.09158 13.5802 18.0364C 13.5802 27.9812 21.7035 36.0728 31.6872 36.0728C 35.2068 36.0728 38.4842 35.0515 41.2681 33.3132C 51.1138 37.0084 57.8926 45.9838 58.7549 56.3638L 4.62181 56.3638C 5.20802 49.3769 8.49897 42.8613 13.8519 38.2124C 14.7957 37.394 14.893 35.9714 14.0714 35.0312C 13.2521 34.0933 11.8216 33.9941 10.8778 34.8125C 3.96317 40.8141 6.03084e-15 49.4896 6.03084e-15 58.6183C 6.03084e-15 59.8651 1.01399 60.8729 2.26337 60.8729L 61.1111 60.8729C 62.3628 60.8729 63.3745 59.8651 63.3745 58.6183C 63.3745 46.2498 56.177 35.2048 45.1475 30.0577ZM 18.107 18.0364C 18.107 10.5761 24.1977 4.5091 31.6872 4.5091C 39.1768 4.5091 45.2675 10.5761 45.2675 18.0364C 45.2675 25.4967 39.1768 31.5637 31.6872 31.5637C 24.1977 31.5637 18.107 25.4967 18.107 18.0364Z"/>
</defs>
</svg>
