<svg width="66" height="25" version="1.1" xmlns="http://www.w3.org/2000/svg" xmlns:xlink="http://www.w3.org/1999/xlink">
<title>Vector</title>
<desc>Created using Figma</desc>
<g id="Canvas" transform="translate(719 -70)">
<g id="Vector">
<g id="Vector">
<use xlink:href="#path0_fill" transform="translate(-719 70)" fill="#FFFFFF" fill-opacity="0.5"/>
<use xlink:href="#path1_fill" transform="translate(-719 70)" fill="#FFFFFF" fill-opacity="0.5"/>
<use xlink:href="#path2_fill" transform="translate(-719 70)" fill="#FFFFFF" fill-opacity="0.5"/>
<use xlink:href="#path3_fill" transform="translate(-719 70)" fill="#FFFFFF" fill-opacity="0.5"/>
<use xlink:href="#path4_fill" transform="translate(-719 70)" fill="#FFFFFF" fill-opacity="0.5"/>
<use xlink:href="#path5_fill" transform="translate(-719 70)" fill="#FFFFFF" fill-opacity="0.5"/>
<use xlink:href="#path6_fill" transform="translate(-719 70)" fill="#FFFFFF" fill-opacity="0.5"/>
</g>
</g>
</g>
<defs>
<path id="path0_fill" d="M 2.42623 11.5184L 12.4651 4.75967C 12.9024 4.46524 13.0206 3.86871 12.7281 3.42732C 12.436 2.9864 11.8448 2.86681 11.4066 3.16219L 1.3677 9.92096C 0.511161 10.4973 0 11.4618 0 12.5002C 0 13.5386 0.511161 14.503 1.3677 15.0794L 11.4066 21.8381C 11.569 21.9476 11.7529 22 11.9349 22C 12.2426 22 12.5446 21.8501 12.7281 21.573C 13.0206 21.1316 12.9024 20.5351 12.4651 20.2407L 2.42623 13.4814C 2.09562 13.2586 1.90554 12.9012 1.90554 12.4997C 1.90554 12.0986 2.09562 11.7413 2.42623 11.5184Z"/>
<path id="path1_fill" d="M 22.4363 0.038825C 22.0103 -0.0982231 21.5548 0.139055 21.4187 0.569427L 14.0386 23.9331C 13.9025 24.3634 14.1378 24.8237 14.5637 24.9611C 14.6455 24.9873 14.7285 25 14.8099 25C 15.1529 25 15.4711 24.7783 15.5813 24.4301L 22.9614 1.06689C 23.0975 0.636519 22.8622 0.176282 22.4363 0.038825Z"/>
<path id="path2_fill" d="M 64.5215 9.92075L 54.4822 3.16198C 54.0448 2.86708 53.4527 2.98619 53.1607 3.4271C 52.8682 3.8685 52.9863 4.46503 53.4236 4.75945L 63.4625 11.5182C 63.7931 11.7411 63.9832 12.0984 63.9832 12.4995C 63.9832 12.9005 63.7936 13.2583 63.4625 13.4812L 53.4241 20.2405C 52.9868 20.5349 52.8686 21.1314 53.1611 21.5728C 53.3445 21.8499 53.6466 21.9998 53.9543 21.9998C 54.1358 21.9998 54.3202 21.9474 54.4826 21.8379L 64.5215 15.0792C 65.378 14.5028 65.8892 13.5384 65.8892 12.5C 65.8892 11.4615 65.378 10.4971 64.5215 9.92075Z"/>
<path id="path3_fill" d="M 28.959 13.4453C 28.959 14.015 28.8792 14.5254 28.7197 14.9766C 28.5648 15.4232 28.3415 15.8037 28.0498 16.1182C 27.7627 16.4281 27.4118 16.6673 26.9971 16.8359C 26.5824 17 26.1152 17.082 25.5957 17.082C 25.1901 17.082 24.7754 17.0433 24.3516 16.9658C 23.9277 16.8883 23.5085 16.7653 23.0938 16.5967L 23.0938 7.34082L 24.2832 7.34082L 24.2832 10L 24.2285 11.2715C 24.5703 10.8112 24.9349 10.4876 25.3223 10.3008C 25.7142 10.1094 26.1335 10.0137 26.5801 10.0137C 26.972 10.0137 27.3161 10.0957 27.6123 10.2598C 27.9085 10.4238 28.1569 10.6562 28.3574 10.957C 28.5579 11.2533 28.7083 11.6133 28.8086 12.0371C 28.9089 12.4564 28.959 12.9258 28.959 13.4453ZM 27.7422 13.5C 27.7422 13.14 27.7148 12.8096 27.6602 12.5088C 27.61 12.208 27.528 11.9505 27.4141 11.7363C 27.3001 11.5221 27.1543 11.3558 26.9766 11.2373C 26.7988 11.1143 26.5869 11.0527 26.3408 11.0527C 26.1904 11.0527 26.0378 11.0778 25.8828 11.1279C 25.7279 11.1735 25.5661 11.2533 25.3975 11.3672C 25.2334 11.4766 25.0579 11.6247 24.8711 11.8115C 24.6888 11.9938 24.4928 12.2217 24.2832 12.4951L 24.2832 15.8242C 24.5156 15.9154 24.7526 15.9883 24.9941 16.043C 25.2357 16.0931 25.4658 16.1182 25.6846 16.1182C 25.958 16.1182 26.2178 16.0749 26.4639 15.9883C 26.7145 15.9017 26.9333 15.7581 27.1201 15.5576C 27.3115 15.3525 27.4619 15.0837 27.5713 14.751C 27.6852 14.4137 27.7422 13.9967 27.7422 13.5Z"/>
<path id="path4_fill" d="M 36.7656 13.5137C 36.7656 14.0469 36.6904 14.5368 36.54 14.9834C 36.3896 15.4255 36.1732 15.806 35.8906 16.125C 35.6081 16.4395 35.264 16.6855 34.8584 16.8633C 34.4528 17.0365 33.9925 17.123 33.4775 17.123C 32.9854 17.123 32.5433 17.0479 32.1514 16.8975C 31.764 16.7425 31.4336 16.5169 31.1602 16.2207C 30.8913 15.9245 30.6839 15.5576 30.5381 15.1201C 30.3968 14.6826 30.3262 14.179 30.3262 13.6094C 30.3262 13.0762 30.4014 12.5908 30.5518 12.1533C 30.7021 11.7113 30.9186 11.333 31.2012 11.0186C 31.4837 10.6995 31.8278 10.4535 32.2334 10.2803C 32.639 10.1025 33.0993 10.0137 33.6143 10.0137C 34.1064 10.0137 34.5462 10.0911 34.9336 10.2461C 35.3255 10.3965 35.6559 10.6198 35.9248 10.916C 36.1982 11.2077 36.4056 11.5723 36.5469 12.0098C 36.6927 12.4473 36.7656 12.9486 36.7656 13.5137ZM 35.5488 13.5684C 35.5488 13.1445 35.501 12.7754 35.4053 12.4609C 35.3141 12.1419 35.182 11.8776 35.0088 11.668C 34.8356 11.4538 34.6237 11.2943 34.373 11.1895C 34.127 11.0801 33.8512 11.0254 33.5459 11.0254C 33.1904 11.0254 32.8851 11.096 32.6299 11.2373C 32.3792 11.374 32.1719 11.5586 32.0078 11.791C 31.8483 12.0234 31.7298 12.2946 31.6523 12.6045C 31.5794 12.9098 31.543 13.2311 31.543 13.5684C 31.543 13.9922 31.5885 14.3636 31.6797 14.6826C 31.7754 15.0016 31.9098 15.2682 32.083 15.4824C 32.2562 15.6921 32.4658 15.8516 32.7119 15.9609C 32.958 16.0658 33.236 16.1182 33.5459 16.1182C 33.9014 16.1182 34.2044 16.0498 34.4551 15.9131C 34.7103 15.7718 34.9176 15.585 35.0771 15.3525C 35.2412 15.1201 35.3597 14.8512 35.4326 14.5459C 35.5101 14.236 35.5488 13.9102 35.5488 13.5684Z"/>
<path id="path5_fill" d="M 38.1396 13.7119C 38.1396 13.1286 38.2194 12.6113 38.3789 12.1602C 38.5384 11.7044 38.764 11.3216 39.0557 11.0117C 39.3519 10.6973 39.7051 10.4603 40.1152 10.3008C 40.5299 10.1367 40.9902 10.0547 41.4961 10.0547C 41.7148 10.0547 41.929 10.0684 42.1387 10.0957C 42.3529 10.123 42.5625 10.1663 42.7676 10.2256L 42.7676 7.34082L 43.9639 7.34082L 43.9639 17L 42.8975 17L 42.8564 15.7012C 42.5238 16.1842 42.1637 16.542 41.7764 16.7744C 41.389 17.0068 40.9697 17.123 40.5186 17.123C 40.1266 17.123 39.7803 17.041 39.4795 16.877C 39.1833 16.7129 38.9349 16.4827 38.7344 16.1865C 38.5384 15.8857 38.3903 15.5257 38.29 15.1064C 38.1898 14.6872 38.1396 14.2223 38.1396 13.7119ZM 39.3564 13.6367C 39.3564 14.4661 39.4772 15.0859 39.7188 15.4961C 39.9648 15.9017 40.3112 16.1045 40.7578 16.1045C 41.0586 16.1045 41.3753 15.9701 41.708 15.7012C 42.0452 15.4323 42.3984 15.0335 42.7676 14.5049L 42.7676 11.3193C 42.5716 11.2282 42.3551 11.1598 42.1182 11.1143C 41.8812 11.0641 41.6465 11.0391 41.4141 11.0391C 40.7669 11.0391 40.2611 11.2487 39.8965 11.668C 39.5365 12.0872 39.3564 12.7435 39.3564 13.6367Z"/>
<path id="path6_fill" d="M 52.29 10.1367L 49.9521 16.2754C 49.7106 16.8997 49.46 17.4375 49.2002 17.8887C 48.945 18.3398 48.6647 18.709 48.3594 18.9961C 48.054 19.2878 47.7191 19.502 47.3545 19.6387C 46.9899 19.7754 46.582 19.8438 46.1309 19.8438C 46.0124 19.8438 45.9053 19.8415 45.8096 19.8369C 45.7139 19.8324 45.609 19.8255 45.4951 19.8164L 45.4951 18.7363C 45.5954 18.75 45.7048 18.7614 45.8232 18.7705C 45.9417 18.7842 46.0671 18.791 46.1992 18.791C 46.418 18.791 46.6208 18.7591 46.8076 18.6953C 46.999 18.6315 47.179 18.5267 47.3477 18.3809C 47.5163 18.2396 47.6781 18.055 47.833 17.8271C 47.988 17.5993 48.1383 17.3236 48.2842 17L 45.543 10.1367L 46.8965 10.1367L 48.6328 14.6758L 48.9814 15.7422L 49.3779 14.6484L 50.9844 10.1367L 52.29 10.1367Z"/>
</defs>
</svg>
