<svg width="80" height="56" viewBox="0 0 80 56" version="1.1" xmlns="http://www.w3.org/2000/svg" xmlns:xlink="http://www.w3.org/1999/xlink">
<title>Vector</title>
<desc>Created using Figma</desc>
<g id="Canvas" transform="translate(670 22)">
<g id="Vector">
<use xlink:href="#path0_fill" transform="translate(-669.663 -21.3333)" fill="#FFFFFF"/>
<use xlink:href="#path1_fill" transform="translate(-669.663 -21.3333)" fill="#FFFFFF"/>
<use xlink:href="#path2_fill" transform="translate(-669.663 -21.3333)" fill="#FFFFFF"/>
</g>
</g>
<defs>
<path id="path0_fill" d="M 4.61095 25.4937L 23.6894 12.7536C 24.5205 12.1986 24.745 11.0742 24.1891 10.2421C 23.6342 9.41103 22.5106 9.18559 21.6777 9.74238L 2.59926 22.4825C 0.97144 23.5689 0 25.3868 0 27.3442C 0 29.3016 0.97144 31.1195 2.59926 32.2059L 21.6777 44.946C 21.9864 45.1524 22.3359 45.2511 22.6817 45.2511C 23.2666 45.2511 23.8406 44.9686 24.1891 44.4463C 24.745 43.6142 24.5205 42.4898 23.6894 41.9348L 4.61095 29.1938C 3.98263 28.7737 3.6214 28.1002 3.6214 27.3433C 3.6214 26.5873 3.98263 25.9137 4.61095 25.4937Z"/>
<path id="path1_fill" d="M 76.0702 22.4825L 56.9908 9.74238C 56.1597 9.1865 55.0344 9.41102 54.4794 10.2421C 53.9235 11.0742 54.148 12.1986 54.9792 12.7536L 74.0576 25.4937C 74.6859 25.9137 75.0471 26.5873 75.0471 27.3433C 75.0471 28.0993 74.6868 28.7737 74.0576 29.1938L 54.9801 41.9348C 54.1489 42.4898 53.9244 43.6142 54.4803 44.4463C 54.8289 44.9686 55.4029 45.2511 55.9877 45.2511C 56.3326 45.2511 56.683 45.1524 56.9917 44.946L 76.0702 32.2059C 77.698 31.1195 78.6694 29.3016 78.6694 27.3442C 78.6694 25.3868 77.698 23.5689 76.0702 22.4825Z"/>
<path id="path2_fill" d="M 48.1357 0.0859211C 47.1833 -0.217371 46.1647 0.307733 45.8605 1.26016L 29.3587 52.9647C 29.0545 53.9171 29.5805 54.9356 30.533 55.2398C 30.7158 55.2978 30.9014 55.3258 31.0834 55.3258C 31.8502 55.3258 32.5619 54.8351 32.8081 54.0647L 49.3099 2.36107C 49.6141 1.40864 49.0881 0.390119 48.1357 0.0859211Z"/>
</defs>
</svg>
    